<svg width="50" height="50" viewBox="0 0 50 50" fill="none" xmlns="http://www.w3.org/2000/svg">
<path d="M14.5833 35.4167H18.9583L31.4583 23.0208L26.9792 18.5417L14.5833 30.9375V35.4167ZM32.9167 21.5625L35.1042 19.2708C35.3125 19.0625 35.4167 18.8195 35.4167 18.5417C35.4167 18.2639 35.3125 18.0208 35.1042 17.8125L32.1875 14.8958C31.9792 14.6875 31.7361 14.5833 31.4583 14.5833C31.1806 14.5833 30.9375 14.6875 30.7292 14.8958L28.4375 17.0833L32.9167 21.5625ZM10.4167 43.75C9.27083 43.75 8.28958 43.3424 7.47292 42.5271C6.65764 41.7104 6.25 40.7292 6.25 39.5833V10.4167C6.25 9.27084 6.65764 8.28959 7.47292 7.47293C8.28958 6.65765 9.27083 6.25001 10.4167 6.25001H19.1667C19.6181 5.00001 20.3736 3.99307 21.4333 3.22918C22.4917 2.46529 23.6806 2.08334 25 2.08334C26.3194 2.08334 27.509 2.46529 28.5688 3.22918C29.6271 3.99307 30.3819 5.00001 30.8333 6.25001H39.5833C40.7292 6.25001 41.7104 6.65765 42.5271 7.47293C43.3424 8.28959 43.75 9.27084 43.75 10.4167V39.5833C43.75 40.7292 43.3424 41.7104 42.5271 42.5271C41.7104 43.3424 40.7292 43.75 39.5833 43.75H10.4167ZM10.4167 39.5833H39.5833V10.4167H10.4167V39.5833ZM25 8.85418C25.4514 8.85418 25.825 8.70626 26.1208 8.41043C26.4153 8.11598 26.5625 7.74307 26.5625 7.29168C26.5625 6.84029 26.4153 6.46668 26.1208 6.17084C25.825 5.8764 25.4514 5.72918 25 5.72918C24.5486 5.72918 24.1757 5.8764 23.8813 6.17084C23.5854 6.46668 23.4375 6.84029 23.4375 7.29168C23.4375 7.74307 23.5854 8.11598 23.8813 8.41043C24.1757 8.70626 24.5486 8.85418 25 8.85418ZM10.4167 39.5833V10.4167V39.5833Z" fill="black"/>
</svg>
